<svg version="1.1" id="logo" xmlns="http://www.w3.org/2000/svg" xmlns:xlink="http://www.w3.org/1999/xlink" x="0px" y="0px" width="42px" height="42px" viewBox="0 0 1200 1200" enable-background="new 0 0 1200 1200" xml:space="preserve">
<path fill="#64ffda" d="M133.29,880.529c0.014,0,0.014,0.012,0.014,0.012L599.993,1150l466.696-269.447c0,0,0.014-0.012,0.027-0.012
	c0,0,0-0.012,0.007-0.012l9.587-5.527v-11.1V336.086v-11.077L599.993,50L123.689,324.998v11.077v527.815v11.101l9.587,5.526
	C133.276,880.518,133.276,880.529,133.29,880.529z M599.993,794.778c38.118,0,69.14,31.008,69.14,69.124
	c0,38.117-31.021,69.136-69.14,69.136c-38.104,0-69.119-31.019-69.119-69.136C530.874,825.786,561.882,794.778,599.993,794.778z
	 M619.215,460.495l418.673,242.269v43.129L619.215,503.611V460.495z M1037.888,658.373l-418.673-242.28v-54.091l418.673,242.269
	V658.373z M580.778,416.104L162.105,658.373v-54.103l418.673-242.269V416.104z M162.105,702.775l418.673-242.269v43.116
	l-418.673,242.27V702.775z M162.105,790.306l418.673-242.292v40.88l-418.673,241.72V790.306z M619.215,548.002l418.673,242.292
	v40.331L619.215,588.894V548.002z M684.383,355.306h353.505V559.87L684.383,355.306z M619.215,316.867V105.456l366.17,211.411
	H619.215z M580.778,316.867H214.602l366.177-211.411V316.867z M515.631,355.306L162.105,559.87V355.306H515.631z M181.327,863.891
	l399.451-230.618v124.879c-50.161,9.082-88.334,53.002-88.334,105.739c0,59.309,48.24,107.564,107.549,107.564
	c59.323,0,107.563-48.256,107.563-107.564c0-52.737-38.187-96.634-88.327-105.739V633.261l399.458,230.63l-418.693,241.719
	L181.327,863.891z"/>
</svg>
